<svg width="100%" height="100%" viewBox="0 0 512 512" xmlns="http://www.w3.org/2000/svg">
  <g transform="matrix(15.887324178612584, 0, 0, 15.887324178612584, -1778.0267217831854, -1768.7048224607297)">
    <path d="M115.484 114.314c0.749-0.292 1.139-0.561 2.333-0.561l20.715-0.561c0.944-0.098 1.027 0.072 1.526 0.365s0.694 3.097 0.724 4.805l0.053 1.195c0.082 0.853-0.694 0.95-0.749 1.317l-23.491 1.683c-2.444-0.072-2.193-0.903-2.194-2.293 0-0.805-0.082-2.146-0.139-2.657-0.027-0.586 0.082-2.707 1.222-3.293z" fill="#D77461" stroke="#020000" stroke-width="0.7" stroke-linecap="round" stroke-linejoin="round" stroke-miterlimit="10" />
  <path d="M116.427 124.093l-0.389 16.534c0 1.196 0.166 1.999 2.471 2.245l7.499 0.536 13.162-0.61c0.776-0.025 1.833-0.219 1.694-1.341l-1.083-15.51 0.083-3.049c-0.056-0.682-0.472-1.146-1-0.976-0.611-0.414-4.748 0.39-9.692 0.61-2.61 0-4.915-0.122-6.746 0.172-2.971 0.244-3.721 0.292-4.499 0.146-0.276-0.048-0.888 0.122-0.945 0.439-0.415-0.025-0.667 0.512-0.555 0.804z" fill="#F0DCB4" stroke="#020000" stroke-width="0.7" stroke-linecap="round" stroke-linejoin="round" stroke-miterlimit="10" />
  <path d="M116.038 121.849C115.957 119.703 115.677 116.509 115.594 115.825C115.511 115.117 115.316 114.801 115.039 115.021C114.844 115.168 114.929 118.313 114.929 120.264C114.734 125.361 114.512 133.508 114.511 135.287C114.456 136.58 114.456 138.262 114.317 139.92C114.204 141.384 114.288 141.725 115.094 142.408C115.651 142.847 116.676 143.555 116.676 143.555L117.399 143.139C117.176 142.822 116.065 142.261 115.4 141.726C114.843 141.236 114.984 140.75 115.012 140.115C115.207 137.726 115.235 128.702 115.345 124.751C115.594 128.629 116.233 138.456 116.483 143.091L117.511 143.091L116.038 121.849Z" fill="#020000" stroke="#020000" stroke-width="0.2" stroke-linecap="round" stroke-linejoin="round" stroke-miterlimit="10" />
  <path d="M115.484 114.46c-0.196 0.048 0.276 0.098 1.165 0.073 4.276-0.098 11.385-0.463 13.829-0.707 2.248-0.072 4.637-0.195 6.193-0.171 0.611 0 1.306 0.072 1.749 0.122 0.723 0.048 1.306-0.219 1.555 0.293 0.112 0.267 0.056 0.561 0.055 0.854 0 3.025 0.25 7.608 0.418 10.632 0.305 4.193 0.834 9.974 0.916 11.291l0.415 3.732c0.082 0.586-0.082 1.146-0.887 1.244l-1.749 0.073c-5.083 0.195-13.163 0.829-18.745 1.39l-2.304 0.243c-0.749 0.048-1.11-0.172-1.11-0.731" fill="none" stroke="#020000" stroke-linecap="round" stroke-linejoin="round" stroke-miterlimit="10" />
  <path d="M119.648 114.02c-0.276-0.926 0.112-2.537 1.556-2.536 1.194 0 2.248 1.464 2.249 3.196 0 1.122-0.776 1.732-1.471 1.78-0.276 0.048-0.361 0.072-0.528 0.219" fill="none" stroke="#020000" stroke-linecap="round" stroke-linejoin="round" stroke-miterlimit="10" />
  <path d="M126.23 113.728c-0.112-1.22 0.556-2.243 1.721-2.244 1.278 0 2.168 1.756 2.027 2.976s-1.055 1.828-1.443 1.853" fill="none" stroke="#020000" stroke-linecap="round" stroke-linejoin="round" stroke-miterlimit="10" />
  <path d="M132.783 113.557c-0.223-1.585 1.027-2.414 1.887-2.194 1.194 0.048 2.082 1.365 2.057 2.853-0.027 1.464-0.944 1.903-1.529 2.024" fill="none" stroke="#020000" stroke-linecap="round" stroke-linejoin="round" stroke-miterlimit="10" />
  <path d="M122.508 116.24c-0.888-0.682-1.75-0.317-2.055 0.269-0.223 0.732 0.415 1.342 1.056 1.194 0.611-0.098 1.222-0.903 0.749-1.341" fill="none" stroke="#020000" stroke-linecap="round" stroke-linejoin="round" stroke-miterlimit="10" />
  <path d="M128.786 115.679c-0.499-0.39-1.083 0.098-1.334 0.439-0.276 0.61 0 1.269 0.915 1.22 0.694-0.048 1.278-0.732 0.639-1.439l-0.333-0.147" fill="none" stroke="#020000" stroke-linecap="round" stroke-linejoin="round" stroke-miterlimit="10" />
  <path d="M135.337 115.557c-0.499-0.561-1.528 0-1.499 0.756 0.082 1.146 1.805 1.146 1.916 0.049 0.027-0.463-0.415-0.682-0.779-0.366-0.333 0.122-0.333 0.512 0 0.609l0.362-0.073" fill="none" stroke="#020000" stroke-linecap="round" stroke-linejoin="round" stroke-miterlimit="10" />
  <path d="M118.288 121.24c-0.027 0.39 0.082 0.903 0.167 1.218" fill="none" stroke="#020000" stroke-linecap="round" stroke-linejoin="round" stroke-miterlimit="10" />
  <path d="M122.065 121.021c-0.196 0.366 0.082 0.853 0.11 1.121" fill="none" stroke="#020000" stroke-linecap="round" stroke-linejoin="round" stroke-miterlimit="10" />
  <path d="M125.758 120.753c-0.166 0.048-0.112 0.903-0.027 1" fill="none" stroke="#020000" stroke-linecap="round" stroke-linejoin="round" stroke-miterlimit="10" />
  <path d="M129.617 120.558c-0.276 0.072 0.056 1.097 0.028 1.291" fill="none" stroke="#020000" stroke-linecap="round" stroke-linejoin="round" stroke-miterlimit="10" />
  <path d="M133.534 120.434c-0.166 0 0.112 1.122 0.14 1.122" fill="none" stroke="#020000" stroke-linecap="round" stroke-linejoin="round" stroke-miterlimit="10" />
  <path d="M137.032 120.264c-0.25 0.048 0.027 1.097 0.027 1.097" fill="none" stroke="#020000" stroke-linecap="round" stroke-linejoin="round" stroke-miterlimit="10" />
  <path d="M115.845 122.239l2.138-0.195" fill="none" stroke="#020000" stroke-linecap="round" stroke-linejoin="round" stroke-miterlimit="10" />
  <path d="M118.232 120.143c0.499-0.172 1.055-0.072 1.25 0.56s-0.25 0.853-0.472 0.365l-0.278-0.487c-0.611 0.048-0.834-0.122-0.694-0.366l0.194-0.072z" fill="#020000" stroke="#020000" stroke-linecap="round" stroke-linejoin="round" stroke-miterlimit="10" />
  <path d="M118.732 121.898l2.777-0.17" fill="none" stroke="#020000" stroke-linecap="round" stroke-linejoin="round" stroke-miterlimit="10" />
  <path d="M121.787 120.143c0.472-0.317 1.11-0.244 1.332 0.415 0.25 0.805-0.389 0.976-0.443 0.56l-0.223-0.56-0.195-0.172c-0.472 0.147-0.749-0.048-0.554-0.243h0.083z" fill="#020000" stroke="#020000" stroke-linecap="round" stroke-linejoin="round" stroke-miterlimit="10" />
  <path d="M122.786 121.629l2.611-0.194" fill="none" stroke="#020000" stroke-linecap="round" stroke-linejoin="round" stroke-miterlimit="10" />
  <path d="M125.591 119.899c0.276-0.122 0.862-0.244 1.083 0.146 0.389 0.829-0.056 1.097-0.251 0.755l-0.415-0.536c-0.611 0.122-0.723-0.195-0.445-0.365h0.028z" fill="#020000" stroke="#020000" stroke-linecap="round" stroke-linejoin="round" stroke-miterlimit="10" />
  <polyline points="126.619 121.361 129.285 121.24" fill="none" stroke="#020000" stroke-linecap="round" stroke-linejoin="round" stroke-miterlimit="10" />
  <path d="M129.478 119.825C129.951 119.582 130.507 119.655 130.645 120.167C130.783 120.68 130.395 120.874 130.2 120.459L129.923 120.167C129.367 120.265 129.229 119.972 129.424 119.825L129.478 119.825Z" fill="#020000" stroke="#020000" stroke-linecap="round" stroke-linejoin="round" stroke-miterlimit="10" />
  <polyline points="130.395 121.118 132.867 121.045" fill="none" stroke="#020000" stroke-linecap="round" stroke-linejoin="round" stroke-miterlimit="10" />
  <path d="M133.254 119.532c0.667-0.219 1.083-0.048 1.223 0.536 0.139 0.561-0.25 0.61-0.388 0.246l-0.307-0.415c-0.667 0.172-0.971-0.195-0.528-0.366z" fill="#020000" stroke="#020000" stroke-linecap="round" stroke-linejoin="round" stroke-miterlimit="10" />
  <polyline points="134.227 121.021 136.782 120.922" fill="none" stroke="#020000" stroke-linecap="round" stroke-linejoin="round" stroke-miterlimit="10" />
  <path d="M136.837 119.532c0.276-0.219 0.834-0.244 0.972-0.048 0.305 0.342 0.333 1.17-0.139 0.78l-0.332-0.341c-0.584 0.098-0.862-0.195-0.501-0.439v0.049z" fill="#020000" stroke="#020000" stroke-linecap="round" stroke-linejoin="round" stroke-miterlimit="10" />
  <polyline points="137.725 120.874 139.613 120.8" fill="none" stroke="#020000" stroke-linecap="round" stroke-linejoin="round" stroke-miterlimit="10" />
  <path d="M118.649 126.531c0.082-0.512 0.638-1.854 1.193-1.852 0.611-0.025 0.638 0.707 0.751 1.072 0.361-0.439 0.749-0.976 1.389-0.951 0.723 0.025 0.749 0.976 1.137 0.829 0.166-0.072 0.415-0.342 0.722-0.219 0.25 0.147 0.25 0.463-0.054 0.61-1.055 0.707-1.528-0.072-1.667-0.391-0.333-0.707-0.888 0.61-1.388 0.782-0.888 0.244-0.776-1-0.917-1.148-0.361 0.488-0.694 1.708-1.083 1.391l-0.083-0.123z" fill="#050404" stroke="#020000" stroke-linecap="round" stroke-linejoin="round" stroke-miterlimit="10" />
  <path d="M126.23 124.679c-0.276 0.61-0.112 1.828 0.887 1.194l0.335-0.341 0.056-0.024c0.444 0.512 0.862 0.147 0.999-0.098 0.472 0.756 1.222 0.463 1.25-0.024-0.196-0.244-0.638 0.147-0.751-0.367-0.027-0.244 0-0.488-0.333-0.56-0.389 0-0.389 0.561-0.722 0.731-0.499-0.732-0.916 0.244-1.332 0.366-0.139-0.292 0-0.877 0-0.877 0-0.219-0.305-0.244-0.389 0z" fill="#050404" stroke="#020000" stroke-linecap="round" stroke-linejoin="round" stroke-miterlimit="10" />
  <path d="M130.784 125.044c-0.139 0.463 0.834 0.61 0.777 0.121 0-0.025-0.112-0.219-0.331-0.146-0.166-0.414-0.444-0.072-0.559 0.123l0.113-0.098z" fill="#050404" stroke="#020000" stroke-linecap="round" stroke-linejoin="round" stroke-miterlimit="10" />
  <path d="M133.644 125.044c0.862-0.707 0.584 0.048 1.389 0 0.361-0.025 0.472-0.147 0.889-0.194 1.249-0.072 1.61-0.39 1.748 0.048" fill="none" stroke="#020000" stroke-linecap="round" stroke-linejoin="round" stroke-miterlimit="10" />
  <path d="M136.837 139.384c0 0.195 0.305 0.536 0.722 0.39 0.305-0.098 0.499-0.122 0.861-0.194 0.556 0 0.556-0.732 0-0.757s-0.807-0.122-1.306 0.097c-0.276 0.122-0.361 0.292-0.359 0.488l0.082-0.024z" fill="#74868E" stroke="#020000" stroke-linecap="round" stroke-linejoin="round" stroke-miterlimit="10" />
  <path d="M134.227 139.043c-0.723 0-0.834 0.732-0.306 0.902 0.196 0.072 0.694 0.072 0.695-0.122 0.415-0.244 0.056-0.488 0.054-0.488l-0.166-0.17-0.277-0.122z" fill="#74868E" stroke="#020000" stroke-linecap="round" stroke-linejoin="round" stroke-miterlimit="10" />
  <path d="M133.283 128.191l-1.944 2.487" fill="none" stroke="#020000" stroke-linecap="round" stroke-linejoin="round" stroke-miterlimit="10" />
  <path d="M128.09 139.799c-0.361 0.025-0.361 0.488 0 0.488 0.749 0.072 2.943-0.147 3.75-0.196 0.499-0.072 0.472-0.805-0.111-0.805-0.584 0.048-2.721 0.292-3.639 0.44v0.073z" fill="#74868E" stroke="#020000" stroke-linecap="round" stroke-linejoin="round" stroke-miterlimit="10" />
  <path d="M125.591 139.676c-0.389-0.244-0.807 0.244-0.36 0.512-0.027 0.561 1.055 0.805 0.971-0.121-0.056-0.244-0.276-0.634-0.611-0.391z" fill="#74868E" stroke="#020000" stroke-linecap="round" stroke-linejoin="round" stroke-miterlimit="10" />
  <path d="M120.176 140.188c0.223-0.048 0.584-0.048 0.724-0.169 0.305-0.098 0.723-0.244 1.11-0.245 0.333 0 0.611 0.048 0.72 0.414-0.112 0.61-0.276 0.682-0.72 0.684-0.223 0-0.305-0.244-0.306-0.245-0.276 0.025-0.776 0.39-1.528 0.245-0.415-0.098-0.415-0.561 0-0.659v-0.025z" fill="#74868E" stroke="#020000" stroke-linecap="round" stroke-linejoin="round" stroke-miterlimit="10" />
  <path d="M126.674 131.239h-0.195c0.944-0.61 2.193-1.828 2.445-2.196 0.276-0.342 0.196-0.853-0.557-0.852-0.944 0.048-3.998 0.244-5.498 0.487-0.584 0.122-0.556 0.634-0.054 0.658 0.638 0.072 3.332-0.244 4.802-0.341-1.027 1.049-2.388 2.024-3.164 2.659-0.444 0.366 0.027 0.976 0.665 0.609 2.305-0.829 3.97 0.195 3.945 1.78-0.056 1.585-2.999 3.586-5.639 2.365-0.694-0.292-0.611-0.658-1.081-0.586-0.276 0.072-0.444 0.463-0.029 0.83 1.139 1.049 2.999 1.342 4.748 0.878 1.61-0.414 2.971-1.708 2.945-3.487-0.166-1.78-1.721-2.804-3.333-2.804z" fill="#020000" stroke="#020000" stroke-linecap="round" stroke-linejoin="round" stroke-miterlimit="10" />
  <path d="M133.172 127.848c-0.276 0.122-0.472 3.439 0.111 9.048 0.112 0.586 1.055 0.488 0.944-0.049-0.112-1.561-0.25-4.34-0.223-5.364 0-1.464-0.027-2.903-0.11-3.416-0.082-0.317-0.499-0.342-0.722-0.219z" fill="#020000" stroke="#020000" stroke-linecap="round" stroke-linejoin="round" stroke-miterlimit="10" />
  </g>
</svg>