<svg width="100%" height="100%" viewBox="0 0 512 512" xmlns="http://www.w3.org/2000/svg">
  <g transform="matrix(3.608642716087523, 0, 0, 3.608642716087523, -5282.53544595394, -3141.0322139122036)">
    <path d="M 1530.9 871.31 C 1563.44 869.2 1592.25 891.964 1596.49 924.48 C 1597.53 932.468 1597.09 938.619 1596.66 946.677 C 1597.42 947.284 1598.16 947.914 1598.89 948.567 C 1602.88 952.196 1604.62 956.468 1605.63 961.806 C 1607.42 971.315 1586.42 977.698 1585.5 979.468 C 1573.47 1002.47 1554.26 1012.53 1528.39 1011.47 C 1504.91 1007.7 1494.1 998.351 1482.53 978.29 C 1480.78 976.889 1479.11 977.85 1477.34 977.279 C 1461.6 972.204 1459.24 956.024 1472.38 946.406 C 1469.62 924.383 1470.73 907.78 1490.8 894.804 C 1486.68 892.731 1484.77 892.513 1483.18 888.905 C 1486.25 881.743 1499.06 882.623 1505.38 884.501 C 1514.47 876.19 1518.95 873.716 1530.9 871.31 z" fill="#000000" />
  <path d="M 1512.68 920.55 C 1519.18 925.734 1546.02 945.693 1553.15 936.562 C 1553.52 932.975 1550.6 928.975 1548.69 925.696 C 1559.47 930.775 1564.51 933.045 1576.46 934.389 C 1591.1 958.121 1584.11 980.581 1562.99 997.284 C 1554.46 1003.15 1544.33 1006.27 1533.97 1006.23 C 1520.55 1006.2 1507.71 1000.71 1498.41 991.018 C 1486.4 978.649 1483.98 965.725 1484.21 949.428 C 1499.71 941.268 1504.98 936.224 1512.68 920.55 z" fill="#EFCDAC" />
  <path d="M 1549.34 980.725 C 1551.95 982.859 1552.17 983.666 1551.2 986.649 C 1543.21 994.841 1528.09 993.026 1518.72 988.033 C 1516.64 985.187 1516.71 986.197 1516.95 983.422 C 1524.45 981.167 1533.4 994.376 1549.34 980.725 z" fill="#000000" />
  <path d="M 1507.89 951.858 C 1513.38 951.869 1523.56 955.108 1518.2 961.461 C 1515 961.008 1515.5 960.602 1512.89 957.866 L 1510.56 957.9 C 1507.82 960.033 1505.93 961.623 1502.44 961.042 C 1501.44 957.186 1505.35 954.036 1507.89 951.858 z" fill="#000000" />
  <path d="M 1553.73 951.792 C 1559.94 951.934 1564.94 952.848 1565.25 960.16 L 1563.8 961.459 C 1560.63 960.871 1561.05 960.46 1558.49 957.938 L 1556.1 957.889 C 1553.98 959.97 1551.83 962.052 1548.84 961.295 L 1548.52 958.624 C 1549.26 955.347 1551.25 954.009 1553.73 951.792 z" fill="#000000" />
  <path d="M 1529.65 877.215 C 1572.75 874.451 1596.55 907.715 1590.33 948.609 C 1586.18 941.318 1585.08 937.218 1579.85 929.402 C 1571.69 928.558 1567.2 927.533 1559.51 924.603 C 1553.34 922.252 1547.26 915.025 1542.02 915.09 C 1538.69 920.007 1545.16 926.076 1544 931.474 C 1541.35 932.18 1538.58 930.46 1535.84 929.275 C 1523.57 923.125 1520.56 919.811 1510.32 910.482 L 1510.05 911.203 C 1502.45 931.473 1497.28 937.328 1477.78 946.199 C 1476.22 935.056 1475.75 913.868 1485.43 906.292 C 1488.76 903.683 1493.8 901.277 1496.31 897.702 C 1498.45 894.655 1495.4 893.869 1494.12 889.217 L 1495.91 888.414 C 1499.73 888.292 1503.52 890.189 1507.12 891.652 C 1515.09 882.919 1518.33 880.253 1529.65 877.215 z" fill="#ECAF55" />
  <path d="M 1476.78 950.544 C 1477.64 951.064 1477.98 951.691 1478.66 952.537 C 1479.18 957.54 1480.38 967.065 1479.1 971.443 L 1476.22 971.416 C 1467.8 964.379 1466.88 956.729 1476.78 950.544 z" fill="#EFCDAC" />
  <path d="M 1589.76 950.107 C 1600.91 953.289 1600.17 961.589 1594.77 969.536 C 1593.33 970.346 1592.06 970.807 1590.54 971.435 L 1589.06 970.404 C 1588.35 966.265 1589.73 956.181 1589.76 950.107 z" fill="#EFCDAC" />
  </g>
</svg>