<svg width="100%" height="100%" viewBox="0 0 512 512" xmlns="http://www.w3.org/2000/svg">
  <g transform="matrix(1.11939155188788, 0, 0, 1.11939155188788, -30.975448256789868, -31.170702206715877)">
    <path d="M281.02 278.18C323.77 278.7 367.11 273.8 409.66 276.57C429.91 277.86 453.96 281.41 467.12 298.49C493.43 332.54 475.18 434.68 471.31 476.99C436.3 481.37 399.41 481.82 364.07 482.85C340.41 483.56 310.81 482.47 293.46 463.83C264.32 432.43 280.18 319.52 281.02 278.18Z" fill="#000000"/>
  <path d="M306.56 322.81L311.71 307.84C337.18 300.43 412.76 303.72 444.49 303.85C445.45 347.5 448.48 408.57 446.1 450.74L335.44 453.26C323.97 453 323.71 451.97 312.87 448.42C299.08 421.34 305.27 356.01 306.56 322.81Z" fill="#E0B07B"/>
  <path d="M306.56 322.81C330.67 312.29 320.42 313.26 345.25 318.48C373.81 343.05 371.88 402.12 372.01 437.52C357.05 448.81 354.08 448.61 335.44 453.26C323.97 453 323.71 451.97 312.87 448.42C299.08 421.34 305.27 356.01 306.56 322.81Z" fill="#EDC59B"/>
  <path d="M43.98 278.57C105.75 276.18 168.24 278.18 230.01 278.25C231.75 333.7 244.72 428.24 220.41 479.18C178.17 479.24 119.04 491.49 79.06 480.98C62.94 476.79 50.49 467.89 43.2 452.68C25.92 416.11 29.6 316.03 43.98 278.57Z" fill="#000000"/>
  <path d="M62.48 306.17C109.75 305.65 156.7 305.46 203.9 307.84C205.38 356.01 204.67 404.44 204.8 452.68C157.02 452.61 109.69 451.97 62.03 448.68C60.42 401.22 61.71 353.69 62.48 306.17Z" fill="#B28E74"/>
  <path d="M287.66 35.14C331.64 34.69 412.63 16.77 449.77 38.82C464.8 47.72 471.31 61.9 475.31 78.22C484.14 114.33 482.92 198.8 462.8 229.82C421.72 233.3 346.92 248.78 310.1 230.4C295.85 223.31 288.5 212.15 283.47 197.38C272.12 163.92 272.89 66.42 287.66 35.14Z" fill="#000000"/>
  <path d="M305.2 61.39C352.15 60.16 398.83 61.13 445.78 62.55C447.58 110.46 450.22 158.24 446.48 206.15C412.18 207.44 344.92 217.95 319 192.94C292.95 167.79 304.17 95.11 305.2 61.39Z" fill="#B28E74"/>
  <path d="M48.23 34.69C108.27 34.18 167.98 34.05 227.95 37.34C233.3 90.86 237.88 155.41 229.3 208.54C227.24 221.5 225.43 221.57 215.05 229.05C176.75 232.4 90.21 249.1 59.65 227.5C46.3 218.02 39.59 202.22 36.82 186.62C30.63 152.37 28.76 62.1 48.23 34.69Z" fill="#000000"/>
  <path d="M74.87 62.55C117.94 60.94 161.02 62.36 204.09 63.26C204.28 98.53 212.54 172.36 195.71 201.96C151.34 203.64 106.72 203.12 62.36 203.57C61.52 161.66 57.39 115.88 63.77 74.54C64.94 67.26 69.13 66.68 74.87 62.55Z" fill="#919C8B"/>
  </g>
</svg>